<svg width="49" height="49" viewBox="0 0 49 49" fill="none" xmlns="http://www.w3.org/2000/svg">
<path d="M17.8005 10.208C13.3184 10.208 8.79639 12.6006 8.61296 12.6963L7.14551 13.5257L4.72103 34.389L4.08301 39.876L9.12337 37.7067C9.17122 37.6828 13.7012 35.8564 17.8643 35.8564C19.6348 35.8564 22.0513 37.0208 22.777 37.4515L24.4997 38.5999L26.1585 37.5153C26.8843 37.0767 29.3566 35.7926 31.1351 35.7926C35.2743 35.7926 39.852 37.6987 39.876 37.7067L44.9163 39.876L41.9176 13.5257L40.3864 12.6963C40.195 12.5926 35.681 10.208 31.1989 10.208C29.548 10.208 27.1315 10.5509 24.4997 11.9307C21.8678 10.5509 19.4593 10.208 17.8005 10.208ZM17.8005 14.2275C19.1483 14.2275 21.1899 14.5465 23.415 15.9502L24.4997 16.5882L25.5843 15.9502C27.8094 14.5465 29.8511 14.2275 31.1989 14.2275C34.0301 14.2275 37.1086 15.5754 38.1533 16.0778L40.195 33.5596C38.3447 32.9136 34.6841 31.8369 31.1351 31.8369C28.4714 31.8369 25.6322 33.1927 24.4997 33.8148C23.431 33.2246 20.5519 31.8369 17.8643 31.8369C14.3232 31.8369 10.6706 32.9056 8.80436 33.5596L10.846 16.0778C12.1699 15.4318 15.1925 14.2275 17.8005 14.2275ZM17.8005 16.2692C16.1416 16.2692 14.1398 16.9152 12.7601 17.4814L11.2288 30.6885C13.1589 30.194 15.5833 29.7952 17.9281 29.7952C20.4403 29.7952 23.0003 30.7603 24.5635 31.5179C26.2383 30.7044 28.7266 29.7952 31.1989 29.7952C31.6615 29.7952 32.0762 29.8271 32.5387 29.8591L31.0713 16.2692C29.9946 16.3011 28.3757 16.5962 26.6689 17.6729L24.5635 19.0127L22.3942 17.6729C20.5838 16.5324 18.8771 16.2692 17.8005 16.2692Z" fill="#129F3E"/>
</svg>
