<svg width="38" height="36" viewBox="0 0 38 36" fill="none" xmlns="http://www.w3.org/2000/svg">
<path d="M18.9998 0.5C8.87984 0.5 0.666504 8.34 0.666504 18C0.666504 27.66 8.87984 35.5 18.9998 35.5C29.1198 35.5 37.3332 27.66 37.3332 18C37.3332 8.34 29.1198 0.5 18.9998 0.5ZM18.9998 5.75C22.0432 5.75 24.4998 8.095 24.4998 11C24.4998 13.905 22.0432 16.25 18.9998 16.25C15.9565 16.25 13.4998 13.905 13.4998 11C13.4998 8.095 15.9565 5.75 18.9998 5.75ZM18.9998 30.6C14.4165 30.6 10.3648 28.36 7.99984 24.965C8.05484 21.4825 15.3332 19.575 18.9998 19.575C22.6482 19.575 29.9448 21.4825 29.9998 24.965C27.6348 28.36 23.5832 30.6 18.9998 30.6Z" fill="black"/>
</svg>
